<?xml version="1.0" encoding="UTF-8" standalone="no"?>
<svg
   version="1.0"
   width="493.98779pt"
   height="435.27661pt"
   viewBox="0 0 493.98779 435.27661"
   preserveAspectRatio="xMidYMid"
   id="svg37"
   xmlns="http://www.w3.org/2000/svg"
   xmlns:svg="http://www.w3.org/2000/svg">
  <defs
     id="defs37" />
  <metadata
     id="metadata1">
Created by potrace 1.16, written by Peter Selinger 2001-2019
</metadata>
  <g
     transform="matrix(0.1,0,0,-0.1,-9.0000003,476.9016)"
     fill="#000000"
     stroke="none"
     id="g37"
     style="fill:#ffffff">
    <path
       d="m 4393,4754 c -83,-18 -105,-34 -143,-105 -38,-72 -59,-179 -60,-305 v -91 l -52,-7 c -45,-6 -55,-4 -68,12 -32,39 -62,50 -150,50 -58,0 -92,-4 -107,-14 -12,-8 -34,-14 -48,-14 -54,0 -88,-30 -114,-101 l -9,-25 -309,-27 c -552,-48 -579,-50 -603,-37 -13,7 -76,52 -141,100 -65,49 -125,92 -132,97 -8,4 -17,28 -20,53 -7,55 -56,105 -112,116 -40,7 -75,-15 -75,-47 0,-16 -5,-17 -32,-11 -40,9 -118,8 -221,-3 -75,-8 -78,-7 -102,19 -51,55 -135,17 -135,-62 0,-23 6,-45 15,-52 22,-19 18,-38 -15,-72 -24,-24 -36,-29 -56,-24 -60,15 -113,-62 -94,-135 6,-23 10,-42 8,-44 -2,-2 -82,-6 -178,-10 l -175,-6 -20,42 c -12,25 -33,49 -52,59 -18,10 -39,23 -48,30 -15,12 -51,10 -135,-8 -49,-11 -90,-49 -90,-85 0,-35 -16,-6 -34,64 -42,162 -160,280 -292,295 -74,9 -172,-11 -219,-44 -95,-66 -152,-184 -162,-334 l -6,-88 h -43 c -50,0 -74,-19 -74,-59 0,-50 19,-63 83,-60 l 57,4 17,-54 c 32,-104 120,-209 213,-256 38,-20 143,-17 219,6 72,21 160,113 180,187 l 8,27 15,-30 c 13,-24 14,-40 7,-75 -5,-25 -12,-121 -15,-215 -7,-193 7,-310 52,-422 19,-48 24,-73 19,-102 -9,-55 24,-93 86,-96 26,-1 76,-17 124,-40 133,-63 212,-86 310,-92 81,-4 92,-7 112,-31 l 22,-25 -28,-56 c -63,-126 -76,-184 -76,-339 v -143 l -40,-10 c -147,-38 -317,-115 -424,-194 -97,-71 -191,-166 -218,-219 -36,-71 -41,-147 -14,-234 11,-39 21,-97 21,-129 0,-83 23,-152 86,-264 30,-52 54,-105 54,-117 0,-34 -38,-50 -156,-68 -121,-19 -194,-49 -221,-92 -9,-15 -34,-46 -55,-69 -28,-32 -39,-53 -44,-91 l -6,-48 -107,-13 c -160,-20 -164,-30 -11,-31 74,0 146,-3 159,-7 22,-6 21,-8 -20,-24 l -44,-18 h 65 c 91,-1 597,15 1235,40 297,11 727,24 955,28 l 415,8 -535,3 c -532,3 -534,3 -345,15 185,12 179,12 -220,9 -225,-3 -449,-7 -497,-10 l -88,-5 v 300 300 l 223,-5 c 122,-2 546,-12 941,-20 l 719,-16 53,-58 c 55,-59 132,-106 222,-135 41,-14 64,-30 107,-77 30,-33 57,-73 60,-89 4,-17 -1,-59 -11,-97 -17,-68 -17,-70 3,-110 l 20,-42 h -276 c -314,0 -774,-11 -766,-18 2,-3 134,-8 292,-13 159,-4 416,-13 573,-20 391,-17 634,-17 905,0 l 230,15 -85,13 c -160,24 -147,18 -153,68 -14,101 -62,154 -185,204 -77,32 -143,73 -181,114 -26,29 -30,9 40,197 26,69 32,104 36,190 5,94 3,113 -20,177 -35,101 -100,194 -215,305 -105,102 -233,193 -366,260 l -79,40 6,141 c 7,161 24,236 89,399 l 42,107 54,12 c 29,6 95,24 145,40 51,16 114,29 140,29 89,0 129,72 95,166 -10,27 -8,48 12,126 32,130 37,302 15,568 l -17,212 29,52 c 25,46 28,60 28,149 -1,60 3,97 10,97 5,0 19,3 30,6 18,5 23,-3 39,-53 26,-84 74,-169 123,-219 49,-51 68,-54 201,-25 133,29 174,87 194,279 6,59 12,108 13,109 0,1 52,7 115,14 63,7 121,16 128,22 16,13 16,108 -1,131 -13,17 -21,18 -123,7 -60,-6 -116,-11 -124,-11 -11,0 -21,22 -33,69 -22,83 -73,194 -113,240 -38,45 -111,91 -143,90 -15,-1 -54,-7 -88,-15 z m 73,-52 c -23,-44 -46,-174 -46,-259 0,-100 24,-260 51,-343 33,-100 64,-154 110,-194 48,-40 45,-45 -9,-17 -43,22 -92,98 -115,176 -8,28 -23,103 -33,168 -10,64 -21,117 -25,117 -27,0 -11,-153 31,-282 15,-49 26,-88 23,-88 -10,0 -51,110 -66,175 -23,100 -31,275 -18,368 13,90 44,171 75,192 31,22 38,18 22,-13 z m -101,-89 c -14,-58 -25,-140 -25,-198 -1,-53 -2,-58 -14,-42 -14,18 -14,17 -21,-2 -3,-12 -10,-21 -15,-21 -5,0 -10,-8 -12,-17 -3,-10 -10,11 -16,47 -10,62 -11,60 -8,-60 2,-93 0,-117 -7,-95 -16,49 -14,303 3,350 16,43 48,65 94,65 26,0 28,-2 21,-27 z m 213,-89 c -74,-40 -75,-270 -1,-406 47,-86 88,-87 118,-2 10,29 14,33 15,16 0,-31 -26,-79 -51,-92 -29,-16 -63,9 -93,68 -88,174 -81,433 12,432 l 27,-1 z M 2353,4419 c 58,-30 72,-86 32,-131 -31,-36 -49,-35 -86,1 -22,23 -29,39 -29,69 0,22 3,47 6,56 7,19 46,21 77,5 z m -481,-16 c 10,-9 18,-24 18,-34 0,-15 5,-16 36,-7 20,5 38,8 40,6 2,-3 -24,-24 -57,-47 -33,-24 -63,-41 -65,-38 -2,2 6,16 18,32 16,21 19,31 11,44 -15,24 -46,20 -60,-8 l -12,-25 -7,28 c -4,19 -1,32 11,46 22,24 43,25 67,3 z M 697,4344 c 69,-40 137,-136 162,-231 23,-85 29,-133 16,-133 -6,0 -16,26 -22,58 -34,180 -144,309 -267,314 -104,4 -195,-93 -227,-242 -18,-86 -6,-251 25,-339 29,-84 29,-103 -2,-39 -74,160 -81,339 -18,483 64,144 210,201 333,129 z m 1517,27 c 21,-4 30,-12 31,-28 3,-36 33,-72 85,-98 l 49,-25 19,25 c 11,14 23,25 27,25 5,0 58,-37 119,-82 61,-45 181,-131 266,-191 85,-61 187,-136 225,-167 99,-81 285,-280 285,-306 0,-5 -20,-20 -45,-33 -46,-24 -103,-80 -126,-123 -7,-14 11,-2 45,30 93,88 190,117 263,79 40,-21 34,-51 -16,-76 -20,-11 -46,-30 -57,-43 -34,-37 -73,-123 -90,-197 -12,-54 -21,-71 -39,-79 -32,-15 -55,-62 -60,-125 -4,-45 -3,-47 4,-14 11,52 21,58 21,11 1,-187 161,-372 313,-362 l 53,3 -28,-90 c -33,-103 -54,-215 -64,-330 -3,-44 -10,-87 -15,-96 -5,-9 -39,-29 -76,-44 -149,-59 -253,-147 -415,-350 -106,-134 -128,-155 -211,-213 -80,-55 -145,-76 -237,-76 -96,1 -184,24 -286,74 -101,49 -166,107 -233,206 -46,67 -108,180 -124,224 -4,10 -6,7 -6,-7 -1,-34 20,-123 40,-170 10,-24 16,-43 13,-43 -15,0 -97,66 -134,107 -65,74 -90,125 -107,215 -34,190 26,440 123,514 18,14 83,45 146,70 136,55 171,75 186,109 17,37 16,39 -20,17 -66,-41 -171,-64 -266,-60 -78,3 -94,6 -130,32 -50,34 -82,82 -82,123 0,69 61,236 106,291 l 19,23 55,-29 c 151,-81 366,-75 620,18 159,57 259,129 398,285 81,92 216,285 198,285 -2,0 -30,-35 -62,-77 -137,-184 -254,-292 -386,-359 -127,-64 -350,-147 -408,-152 -62,-5 -62,-5 31,60 65,46 115,105 121,143 2,11 22,33 45,48 72,49 161,155 203,242 45,94 60,159 60,258 0,83 -12,136 -40,169 -19,23 -19,23 -3,-22 20,-56 22,-186 4,-260 -25,-103 -86,-215 -159,-289 -126,-127 -253,-191 -350,-176 -26,4 -56,12 -67,18 -19,10 -18,11 10,23 17,7 53,13 80,14 87,0 179,65 200,140 6,19 0,15 -24,-17 -45,-62 -99,-86 -177,-81 -35,2 -66,6 -69,9 -3,3 8,30 25,60 16,30 41,90 55,133 14,44 33,85 42,91 15,11 14,15 -10,39 -16,16 -37,26 -54,25 -27,0 -28,-1 -5,-11 12,-6 22,-14 22,-18 0,-14 -70,-124 -98,-153 -32,-35 -96,-66 -135,-67 -15,0 -85,19 -155,42 -169,56 -239,58 -307,10 -25,-18 -50,-30 -56,-27 -12,8 -12,131 1,175 16,57 25,66 45,46 24,-23 31,-13 11,16 -31,44 -11,149 31,162 10,2 48,5 86,5 37,0 83,5 103,11 50,17 82,6 101,-34 22,-46 11,-82 -40,-128 -40,-37 -40,-38 -10,-28 36,13 78,56 86,88 8,35 -11,89 -41,113 -27,21 -56,22 -147,4 -26,-5 -25,-4 10,13 25,12 66,20 110,21 61,2 76,-2 107,-23 24,-16 35,-19 31,-10 -9,24 -78,54 -125,55 -34,0 -39,2 -22,9 47,19 109,21 154,6 l 45,-15 -24,20 c -20,17 -37,20 -95,18 -39,-1 -79,-6 -88,-11 -13,-6 -18,-5 -18,6 0,8 -11,27 -24,43 -28,34 -39,66 -31,92 7,24 33,35 50,21 8,-6 24,-3 50,10 22,11 48,20 60,20 11,1 34,7 50,15 l 30,15 -45,-5 c -39,-5 -42,-4 -26,7 10,7 51,37 92,66 40,29 90,59 111,67 39,14 145,18 197,6 z m 2766,-18 c -1,-23 -27,-31 -139,-42 -68,-6 -126,-9 -129,-6 -15,14 23,25 133,38 66,8 123,15 128,16 4,0 7,-2 7,-6 z m -323,-45 c -3,-8 -6,-5 -6,6 -1,11 2,17 5,13 3,-3 4,-12 1,-19 z m -752,-28 c 3,-5 2,-10 -3,-10 -15,0 -32,-57 -32,-106 0,-40 -2,-44 -24,-44 -13,0 -31,-3 -39,-6 -11,-4 -16,4 -19,31 -6,56 2,92 28,120 24,26 77,35 89,15 z m 126,-20 c 24,-19 24,-19 2,-20 -12,0 -28,-7 -36,-15 -8,-8 -17,-12 -19,-9 -3,2 -1,-17 3,-43 6,-39 4,-50 -9,-60 -20,-16 -45,-16 -60,-1 -18,18 -15,119 4,146 20,29 82,30 115,2 z M 595,4248 c -38,-21 -67,-53 -93,-103 -58,-112 -35,-316 46,-408 35,-41 35,-41 3,-12 -125,113 -130,391 -11,499 22,20 48,36 58,36 15,-1 14,-2 -3,-12 z m 3175,-17 c -5,-11 -10,-41 -10,-68 0,-45 -2,-49 -31,-60 -18,-7 -36,-10 -40,-7 -5,3 -9,28 -9,56 0,62 27,98 72,98 25,0 27,-2 18,-19 z m 395,-22 c -22,-4 -51,-8 -65,-7 -35,1 34,15 75,16 25,0 23,-2 -10,-9 z m 102,-41 c -3,-8 -6,-5 -6,6 -1,11 2,17 5,13 3,-3 4,-12 1,-19 z m -3143,-44 c 13,-5 9,-10 -16,-23 -25,-12 -38,-29 -53,-68 -14,-37 -25,-53 -39,-53 -12,0 -16,5 -12,16 3,9 6,29 6,46 0,54 65,101 114,82 z m 2513,0 c -12,-12 -718,-75 -806,-72 -63,2 -48,3 389,42 423,38 426,38 417,30 z m -2622,-38 c -9,-13 -18,-45 -21,-72 -6,-46 -8,-49 -35,-50 -24,-1 -29,3 -29,21 0,61 42,125 81,125 18,0 18,-2 4,-24 z m 3055,-2 c 42,-36 60,-74 60,-129 0,-39 -5,-51 -41,-90 -36,-39 -42,-52 -50,-112 -14,-111 -9,-160 7,-60 18,116 29,136 38,66 30,-262 30,-540 2,-664 -42,-180 -41,-171 -21,-208 46,-86 -53,-146 -109,-65 l -16,22 v -22 c 0,-27 -49,-54 -156,-83 -95,-26 -223,-24 -251,3 -26,27 -6,39 86,53 91,15 163,45 239,99 29,21 52,39 52,39 0,1 -33,2 -74,2 -62,0 -80,4 -105,23 -41,30 -41,9 -1,-46 17,-23 30,-44 30,-46 0,-14 -119,-28 -205,-24 -127,4 -165,21 -197,86 -20,41 -23,61 -23,167 1,107 4,126 27,175 28,61 69,110 91,110 9,0 17,-15 22,-37 7,-39 50,-143 59,-143 3,0 1,12 -4,28 -6,15 -14,50 -19,77 l -9,50 39,-45 c 21,-25 39,-41 39,-36 0,4 -14,37 -30,71 l -30,63 21,54 c 11,29 49,107 83,173 35,66 73,146 86,178 22,53 26,57 57,57 31,0 32,-1 28,-32 -5,-33 -1,-26 15,23 7,23 6,25 -21,21 -46,-7 -78,6 -99,41 -21,34 -27,92 -10,102 14,9 142,-15 169,-32 22,-14 25,-14 40,4 9,11 37,34 62,51 25,17 51,37 58,46 18,21 24,20 61,-10 z m -224,1 c -10,-8 -23,-12 -28,-9 -14,9 2,24 25,24 21,-1 21,-1 3,-15 z m -2641,-20 c 14,-13 25,-30 25,-37 0,-7 -23,-25 -50,-40 -34,-19 -50,-34 -50,-48 0,-23 -29,-27 -48,-8 -19,19 -14,89 8,126 16,26 26,32 55,32 25,0 44,-8 60,-25 z m 2550,15 c -3,-5 -13,-10 -21,-10 -8,0 -12,5 -9,10 3,6 13,10 21,10 8,0 12,-4 9,-10 z m -131,-92 c 4,-24 20,-61 36,-84 l 29,-41 -34,-76 c -24,-57 -130,-257 -150,-284 -1,-2 -34,5 -73,15 -69,18 -73,21 -135,93 -104,121 -271,276 -368,340 -23,16 -22,16 46,24 85,9 579,52 616,54 24,1 27,-4 33,-41 z m -2923,12 c 20,-16 21,-19 6,-20 -24,0 -39,-43 -27,-76 12,-30 6,-44 -19,-44 -26,0 -51,32 -58,73 -4,29 -1,40 20,61 31,31 47,32 78,6 z m 912,-7 c -13,-2 -35,-2 -50,0 -16,2 -5,4 22,4 28,0 40,-2 28,-4 z m -150,-10 c -23,-2 -64,-2 -90,0 -26,2 -7,3 42,3 50,0 71,-1 48,-3 z m -170,-10 c -13,-2 -33,-2 -45,0 -13,2 -3,4 22,4 25,0 35,-2 23,-4 z m -255,-30 c -4,-22 -22,-20 -26,1 -2,10 3,16 13,16 10,0 15,-7 13,-17 z m -163,-3 c -16,-4 -64,-7 -105,-7 -70,0 -72,1 -25,7 28,4 75,7 105,7 44,1 49,-1 25,-7 z m 95,0 c -19,-13 -30,-13 -30,0 0,6 10,10 23,10 18,0 19,-2 7,-10 z m 459,-59 c -12,-16 -24,-54 -29,-87 -4,-33 -16,-79 -25,-104 -10,-25 -20,-75 -22,-111 -8,-103 29,-161 126,-195 l 36,-13 -55,-1 c -30,0 -65,-3 -78,-6 -20,-6 -27,5 -82,117 -33,69 -68,158 -79,199 l -19,75 26,30 c 13,16 33,49 43,72 l 18,42 78,4 c 43,1 79,4 81,5 1,1 -7,-11 -19,-27 z m -213,-2 c 17,-19 17,-23 3,-47 -8,-15 -32,-37 -54,-49 -34,-19 -39,-27 -15,-25 3,0 4,-14 2,-31 -2,-18 1,-43 7,-57 8,-21 10,-16 11,35 l 2,60 9,-44 c 14,-73 39,-140 96,-260 l 54,-114 -56,-49 c -43,-39 -58,-60 -70,-100 -21,-72 -18,-95 5,-30 18,54 51,96 104,135 l 29,21 -6,-26 c -4,-15 -10,-34 -13,-45 -4,-13 0,-11 15,7 12,14 24,35 27,48 4,13 16,24 33,28 14,3 31,7 36,9 22,6 128,-16 171,-36 24,-12 54,-35 65,-51 19,-27 20,-32 8,-74 -10,-33 -15,-40 -20,-27 -4,11 -9,-2 -14,-37 -14,-101 -94,-228 -162,-256 -18,-8 -56,-14 -85,-15 l -53,-1 69,-14 c 108,-21 141,-53 85,-81 -58,-30 -210,-4 -361,62 -66,28 -88,34 -121,28 l -40,-6 8,44 c 4,24 8,56 9,72 1,29 6,33 23,16 6,-6 16,-10 23,-7 6,2 -7,16 -30,30 -22,15 -38,22 -34,15 5,-8 4,-9 -4,-2 -36,35 -79,290 -68,405 3,30 11,105 17,167 11,111 11,111 -15,168 -20,40 -25,65 -21,86 8,34 24,47 36,28 8,-12 11,-12 19,1 7,12 13,13 29,3 10,-6 22,-9 26,-5 4,4 26,7 48,8 23,1 65,8 92,16 28,9 53,16 56,17 3,0 14,-8 25,-20 z m -365,-94 c -24,-131 -106,-219 -204,-219 -29,0 -61,6 -72,12 -19,12 -18,12 5,6 109,-32 201,41 252,197 12,38 23,67 26,65 2,-2 -1,-30 -7,-61 z M 484,3651 c 11,-13 15,-21 8,-17 -18,10 -72,86 -72,100 0,6 10,-5 21,-24 12,-19 31,-46 43,-59 z m 1608,-164 c -54,-116 -126,-177 -209,-177 -84,0 -290,76 -280,103 7,21 99,10 187,-23 46,-16 97,-30 113,-30 65,0 137,59 188,155 35,66 36,45 1,-28 z m -317,-29 c 109,-38 167,-40 221,-10 l 39,23 -37,-35 c -54,-51 -88,-54 -210,-16 -138,42 -193,47 -257,24 -53,-19 -75,-14 -49,12 51,51 148,52 293,2 z m 555,-178 c -12,-17 -36,-41 -53,-54 -36,-27 -136,-51 -168,-41 -17,6 -7,12 46,30 36,13 92,39 123,58 71,44 79,45 52,7 z m -708,-787 c -49,-107 -65,-191 -59,-313 4,-91 3,-102 -9,-86 -37,51 -31,230 11,346 35,96 64,145 78,131 7,-7 1,-31 -21,-78 z m -60,-490 c 20,-21 60,-76 88,-123 71,-117 115,-171 226,-284 153,-154 292,-240 439,-271 170,-36 374,2 534,99 69,43 93,68 168,181 62,92 123,173 123,162 0,-4 -25,-44 -57,-89 -59,-87 -122,-212 -144,-287 -7,-23 -23,-50 -35,-58 -70,-45 -341,-73 -541,-55 -187,16 -380,77 -444,138 -17,16 -29,22 -33,15 -7,-10 -133,172 -259,374 -31,50 -66,101 -78,115 -28,33 67,-146 153,-288 37,-63 68,-118 68,-122 0,-5 -10,-10 -22,-13 -20,-3 -19,-5 9,-12 24,-5 37,-17 53,-49 l 20,-41 -113,-12 c -125,-13 -195,-34 -305,-94 l -76,-40 -27,20 c -16,12 -32,21 -37,21 -5,0 2,-37 15,-82 31,-107 26,-156 -32,-279 -55,-115 -57,-155 -15,-218 42,-61 42,-130 2,-171 -42,-41 -88,-50 -273,-50 -146,0 -170,2 -189,18 -27,22 -30,90 -6,128 23,33 72,57 112,52 42,-5 44,5 5,22 -36,15 -87,1 -131,-36 -34,-29 -65,-103 -56,-138 5,-20 1,-25 -20,-30 -14,-4 -46,-4 -70,0 -42,6 -44,8 -44,39 0,70 78,165 136,165 29,0 31,16 4,25 -25,8 -56,-1 -92,-27 -22,-15 -28,-16 -28,-5 0,17 24,39 65,60 17,8 101,27 187,43 86,16 152,32 145,36 -22,13 20,20 59,9 51,-14 53,-8 4,14 -56,25 -52,45 8,46 l 47,1 -32,11 c -18,7 -40,22 -48,35 -18,25 -14,26 35,12 63,-18 143,19 176,82 l 16,30 -39,-30 c -107,-84 -208,-60 -268,62 -29,58 -46,166 -27,166 7,0 31,-5 54,-11 34,-9 50,-9 76,2 l 33,14 h -44 c -77,0 -157,85 -157,168 0,19 -7,47 -15,63 -18,35 -11,66 28,123 116,170 342,327 550,381 40,10 74,19 77,19 3,1 22,-16 42,-36 z m 2036,-62 c 114,-58 247,-155 348,-256 197,-196 260,-347 221,-530 -15,-73 -78,-243 -104,-283 -20,-31 -129,-82 -176,-82 -75,0 -163,70 -209,165 -18,37 -30,48 -67,62 -97,36 -146,84 -190,183 -41,93 -46,224 -12,313 17,45 4,31 -33,-35 -35,-65 -60,-134 -71,-202 l -7,-39 -19,29 c -23,35 -24,29 -4,-19 17,-41 21,-97 5,-81 -5,5 -19,36 -30,68 -22,66 -26,167 -9,231 19,67 77,177 134,253 102,136 -4,32 -162,-159 -69,-83 -214,-206 -221,-188 -7,19 41,156 80,229 86,161 206,292 320,350 76,38 117,36 206,-9 z M 2080,1291 c 23,-6 -48,-9 -204,-10 -132,-1 -236,2 -233,6 22,21 352,25 437,4 z m 250,-42 c 67,-7 172,-9 250,-5 74,3 198,8 275,11 128,4 135,3 82,-8 l -59,-12 74,-19 c 40,-10 96,-27 123,-37 49,-18 41,-18 -470,-12 -286,3 -656,8 -823,12 l -303,6 58,43 58,43 310,-6 c 171,-3 362,-10 425,-16 z M 1370,810 V 540 h -34 -34 l 5,58 c 4,46 1,69 -16,108 -41,92 -39,117 18,228 28,54 51,109 51,122 0,13 2,24 5,24 3,0 5,-121 5,-270 z m 2741,6 c 22,-21 33,-37 26,-40 -7,-2 -3,-5 8,-6 11,0 45,-14 75,-30 45,-24 50,-29 29,-30 -14,0 -34,-7 -45,-15 -18,-15 -18,-15 7,-9 47,10 125,-47 148,-109 17,-43 14,-104 -5,-111 -9,-3 -48,-6 -88,-6 -71,0 -73,1 -69,23 6,33 -13,99 -38,131 -26,33 -68,51 -83,36 -7,-7 -5,-10 6,-10 18,0 78,-64 78,-83 0,-7 -9,2 -19,19 -23,38 -39,50 -53,36 -6,-6 -2,-21 11,-43 22,-36 27,-75 12,-98 -7,-11 -31,-12 -122,-6 -63,4 -122,11 -131,16 -25,13 -23,70 3,102 11,15 28,56 38,92 l 18,65 -26,-7 c -15,-3 -23,-2 -18,3 8,8 187,112 196,113 2,1 21,-14 42,-33 z m 279,-158 c 43,-30 70,-82 70,-135 0,-41 -1,-43 -30,-43 -29,0 -30,2 -30,45 0,44 -28,116 -50,130 -12,8 -13,25 -1,25 4,0 23,-10 41,-22 z M 557,636 c -12,-18 -24,-29 -25,-24 -5,11 26,58 38,58 5,0 -1,-15 -13,-34 z M 4167,488 c -2,-13 -4,-5 -4,17 -1,22 1,32 4,23 2,-10 2,-28 0,-40 z"
       id="path1"
       style="fill:#ffffff" />
    <path
       d="m 2296,4383 c -20,-51 51,-127 81,-87 19,26 16,61 -7,84 -24,24 -65,26 -74,3 z"
       id="path2"
       style="fill:#ffffff" />
    <path
       d="m 2114,4293 c 8,-9 76,-32 76,-26 0,5 -65,33 -76,33 -4,0 -4,-3 0,-7 z"
       id="path3"
       style="fill:#ffffff" />
    <path
       d="m 2033,4240 c -42,-25 -62,-57 -66,-107 -5,-52 -13,-63 -43,-63 -16,0 -27,7 -33,22 -8,23 -8,23 -15,2 -5,-17 -18,-23 -63,-28 -54,-6 -58,-5 -80,21 l -23,28 18,-42 c 12,-31 21,-41 32,-37 38,16 98,16 128,0 29,-15 35,-15 61,-1 39,20 44,29 52,100 6,49 12,64 36,82 37,30 100,31 138,1 l 28,-21 -12,22 c -24,43 -104,54 -158,21 z"
       id="path4"
       style="fill:#ffffff" />
    <path
       d="m 2411,4250 c 0,-3 8,-30 19,-60 19,-54 19,-54 20,-19 0,22 -8,46 -20,60 -10,13 -19,22 -19,19 z"
       id="path5"
       style="fill:#ffffff" />
    <path
       d="m 2485,4195 c 5,-11 16,-42 26,-70 13,-37 19,-46 24,-32 10,25 -1,57 -31,92 -18,20 -24,24 -19,10 z"
       id="path6"
       style="fill:#ffffff" />
    <path
       d="m 2085,4160 c -3,-5 3,-10 13,-10 11,0 25,-7 32,-15 11,-13 8,-14 -17,-9 -25,5 -34,1 -51,-23 -11,-16 -24,-41 -27,-56 -6,-23 -5,-26 11,-20 12,4 15,3 10,-5 -11,-18 69,-15 88,3 8,9 12,23 9,32 -5,12 -3,14 8,8 12,-8 12,-6 0,8 -12,15 -11,17 3,17 23,0 20,14 -10,49 -26,31 -57,40 -69,21 z m 40,-60 c 3,-5 -3,-10 -14,-10 -12,0 -21,5 -21,10 0,6 6,10 14,10 8,0 18,-4 21,-10 z m 15,-65 c -7,-8 -20,-15 -29,-15 -11,0 -8,5 9,14 33,19 35,19 20,1 z"
       id="path7"
       style="fill:#ffffff" />
    <path
       d="m 2636,4060 c 4,-8 18,-28 30,-45 51,-70 104,-200 104,-260 0,-20 3,-26 10,-19 16,16 -5,128 -34,188 -14,28 -46,74 -71,101 -26,28 -43,43 -39,35 z"
       id="path8"
       style="fill:#ffffff" />
    <path
       d="m 2350,4051 c 0,-3 9,-12 20,-19 11,-7 26,-27 34,-45 9,-20 15,-25 15,-14 1,29 -26,74 -49,80 -11,3 -20,2 -20,-2 z"
       id="path9"
       style="fill:#ffffff" />
    <path
       d="m 2161,3974 c -29,-28 -79,-32 -119,-8 l -27,16 28,-26 c 37,-34 85,-35 121,-1 14,13 26,29 26,35 0,13 0,13 -29,-16 z"
       id="path10"
       style="fill:#ffffff" />
    <path
       d="m 2252,3930 c -16,-26 -65,-50 -121,-60 l -46,-8 50,-1 c 55,-1 106,23 125,59 15,28 8,35 -8,10 z"
       id="path11"
       style="fill:#ffffff" />
    <path
       d="m 1660,3831 c -31,-31 -48,-77 -34,-91 6,-6 27,6 53,28 38,33 43,42 37,65 -8,34 -21,34 -56,-2 z"
       id="path12"
       style="fill:#ffffff" />
    <path
       d="m 1457,3804 c -15,-15 -6,-51 17,-73 25,-24 46,-21 46,4 0,20 -53,78 -63,69 z"
       id="path13"
       style="fill:#ffffff" />
    <path
       d="m 2358,3735 c 8,-95 8,-191 0,-260 l -7,-50 20,40 c 17,34 19,56 16,150 -3,66 -11,128 -20,155 l -16,45 z"
       id="path14"
       style="fill:#ffffff" />
    <path
       d="m 1810,3630 c 0,-5 5,-10 10,-10 6,0 10,5 10,10 0,6 -4,10 -10,10 -5,0 -10,-4 -10,-10 z"
       id="path15"
       style="fill:#ffffff" />
    <path
       d="m 2355,3053 c -60,-19 -148,-40 -195,-46 l -85,-13 62,-17 62,-18 104,44 c 108,46 189,87 172,85 -5,0 -59,-16 -120,-35 z"
       id="path16"
       style="fill:#ffffff" />
    <path
       d="m 3058,2805 c -29,-52 -100,-113 -173,-147 -67,-32 -75,-33 -190,-33 -98,0 -134,4 -195,23 -106,34 -183,75 -220,119 l -32,38 6,-34 c 14,-77 63,-109 247,-162 144,-41 220,-52 323,-47 190,10 267,80 254,233 l -3,40 z"
       id="path17"
       style="fill:#ffffff" />
    <path
       d="m 2854,2787 c -31,-27 -28,-51 10,-68 58,-27 111,27 71,71 -24,26 -48,25 -81,-3 z m 66,-8 c 0,-15 -4,-19 -16,-15 -9,3 -18,6 -20,6 -2,0 -4,7 -4,15 0,8 9,15 20,15 14,0 20,-7 20,-21 z"
       id="path18"
       style="fill:#ffffff" />
    <path
       d="m 1727,2773 c -13,-12 -7,-40 13,-58 38,-35 94,17 58,53 -16,16 -29,15 -25,0 1,-7 -5,-13 -13,-13 -8,0 -14,6 -12,13 2,13 -10,16 -21,5 z"
       id="path19"
       style="fill:#ffffff" />
    <path
       d="m 2845,2444 c 152,-74 233,-96 365,-99 63,-2 99,-1 80,1 -114,15 -223,42 -364,90 -87,30 -162,54 -165,53 -3,0 35,-21 84,-45 z"
       id="path20"
       style="fill:#ffffff" />
    <path
       d="m 1825,2409 c -9,-17 -15,-33 -13,-35 3,-2 12,12 21,31 21,43 13,47 -8,4 z"
       id="path21"
       style="fill:#ffffff" />
    <path
       d="m 1785,2308 c -39,-132 -38,-290 4,-409 24,-67 25,-58 6,67 -19,125 -19,230 0,318 18,84 12,98 -10,24 z"
       id="path22"
       style="fill:#ffffff" />
    <path
       d="m 2089,1960 c -29,-8 -82,-41 -76,-47 2,-2 24,6 48,17 24,11 54,20 67,20 13,0 20,4 17,10 -7,11 -19,12 -56,0 z"
       id="path23"
       style="fill:#ffffff" />
    <path
       d="m 2210,1955 c 0,-2 17,-14 39,-24 21,-11 74,-48 117,-83 62,-48 73,-54 50,-28 -59,72 -206,168 -206,135 z"
       id="path24"
       style="fill:#ffffff" />
    <path
       d="m 3920,3884 c 0,-12 72,-34 107,-33 35,1 34,2 -18,13 -30,7 -63,15 -72,19 -9,3 -17,4 -17,1 z"
       id="path25"
       style="fill:#ffffff" />
    <path
       d="m 3891,3654 c 0,-11 3,-14 6,-6 3,7 2,16 -1,19 -3,4 -6,-2 -5,-13 z"
       id="path26"
       style="fill:#ffffff" />
    <path
       d="m 3866,3558 c -10,-40 -38,-133 -62,-207 -24,-74 -42,-136 -40,-138 14,-15 134,379 124,408 -2,6 -12,-23 -22,-63 z"
       id="path27"
       style="fill:#ffffff" />
    <path
       d="m 985,3720 c -29,-7 -28,-8 10,-8 22,0 49,3 60,8 17,7 15,9 -10,8 -16,0 -43,-4 -60,-8 z"
       id="path28"
       style="fill:#ffffff" />
    <path
       d="m 953,3655 c 0,-27 2,-38 4,-22 2,15 2,37 0,50 -2,12 -4,0 -4,-28 z"
       id="path29"
       style="fill:#ffffff" />
    <path
       d="m 933,3400 c 0,-25 2,-35 4,-22 2,12 2,32 0,45 -2,12 -4,2 -4,-23 z"
       id="path30"
       style="fill:#ffffff" />
    <path
       d="m 956,1506 c 17,-8 34,-24 37,-36 3,-12 10,-19 16,-16 5,4 17,-4 25,-16 13,-18 16,-19 16,-6 0,28 -67,88 -98,88 l -27,-1 z"
       id="path31"
       style="fill:#ffffff" />
    <path
       d="m 1515,1483 c -56,-8 -149,-34 -184,-53 -44,-22 -93,-73 -116,-120 -16,-32 -13,-30 46,26 78,74 124,99 243,130 83,21 87,27 11,17 z"
       id="path32"
       style="fill:#ffffff" />
    <path
       d="m 913,789 c 57,-6 92,-16 125,-35 45,-26 46,-26 27,-4 -31,36 -77,50 -157,49 l -73,-2 z"
       id="path33"
       style="fill:#ffffff" />
    <path
       d="m 3630,1856 c 0,-2 30,-21 68,-42 37,-20 78,-44 92,-52 l 25,-14 -25,21 c -27,22 -160,95 -160,87 z"
       id="path34"
       style="fill:#ffffff" />
    <path
       d="m 4110,1213 c -16,-66 -67,-158 -105,-192 -75,-66 -155,-43 -291,80 -45,41 -105,87 -135,103 l -54,29 52,-47 c 29,-26 81,-82 117,-125 81,-97 131,-132 195,-139 62,-6 99,14 150,78 45,56 77,134 87,209 8,64 0,66 -16,4 z"
       id="path35"
       style="fill:#ffffff" />
    <path
       d="m 4030,895 c -6,-7 -35,-25 -63,-40 -28,-14 -43,-25 -33,-25 25,0 67,24 95,54 14,14 22,26 19,26 -3,0 -11,-7 -18,-15 z"
       id="path36"
       style="fill:#ffffff" />
    <path
       d="m 4013,694 c -17,-9 -40,-25 -50,-36 -13,-16 -3,-12 42,12 72,40 72,40 54,40 -8,0 -28,-8 -46,-16 z"
       id="path37"
       style="fill:#ffffff" />
  </g>
</svg>
