<?xml version="1.0" encoding="UTF-8" standalone="no"?>
<svg
   version="1.0"
   width="507.79996pt"
   height="410.50946pt"
   viewBox="0 0 507.79996 410.50946"
   preserveAspectRatio="xMidYMid"
   id="svg34"
   xmlns="http://www.w3.org/2000/svg"
   xmlns:svg="http://www.w3.org/2000/svg">
  <defs
     id="defs34" />
  <metadata
     id="metadata1">
Created by potrace 1.16, written by Peter Selinger 2001-2019
</metadata>
  <g
     transform="matrix(0.1,0,0,-0.1,-4.2000428,455.86335)"
     fill="#000000"
     stroke="none"
     id="g34"
     style="fill:#000000">
    <path
       d="m 2661,4547 c -36,-18 -62,-58 -64,-102 -2,-21 -8,-40 -14,-42 -5,-2 -35,6 -64,18 -69,27 -155,42 -249,42 -68,0 -82,-3 -156,-41 l -81,-41 -16,29 c -12,19 -35,35 -73,49 -69,26 -70,26 -99,-4 -29,-28 -32,-70 -8,-97 15,-17 15,-18 -5,-18 -39,0 -98,-30 -115,-59 -11,-18 -17,-50 -17,-85 0,-38 -4,-56 -12,-56 -29,0 -116,-50 -164,-93 -47,-43 -56,-46 -98,-45 -52,3 -90,-20 -119,-70 -21,-36 -57,-198 -57,-258 0,-71 35,-166 82,-219 52,-59 89,-75 173,-75 36,0 65,-4 65,-10 0,-19 65,-82 112,-109 l 48,-28 -42,-19 c -47,-21 -130,-100 -154,-146 l -16,-31 -172,6 c -94,4 -210,7 -258,7 h -88 v 28 c 0,49 -57,102 -110,102 -11,0 -23,8 -27,18 -27,79 -81,167 -134,216 -79,74 -133,91 -269,90 -119,-2 -167,-15 -240,-69 -223,-164 -240,-609 -31,-824 87,-89 164,-114 312,-101 115,10 170,31 236,93 l 48,45 35,-60 c 87,-150 286,-272 445,-271 87,0 250,66 383,156 l 43,29 27,-29 27,-28 -26,-51 c -14,-27 -28,-60 -31,-71 -5,-18 -14,-21 -68,-22 -217,-3 -497,-184 -588,-379 -32,-70 -27,-112 26,-222 48,-100 70,-192 55,-235 -7,-23 -24,-37 -75,-62 -72,-35 -103,-72 -114,-139 -8,-53 15,-99 60,-121 39,-18 46,-47 46,-194 v -88 l -58,-7 C 822,836 829,838 792,788 c -18,-26 -31,-52 -28,-57 15,-24 117,-23 303,3 103,14 332,44 508,66 176,23 322,43 324,46 8,8 -83,95 -106,101 l -23,5 v 275 276 l 58,-6 c 31,-4 159,-12 284,-18 l 227,-12 7,-44 c 4,-30 1,-55 -11,-85 -24,-59 -22,-167 4,-242 27,-75 26,-86 -3,-144 -31,-61 -56,-88 -144,-151 -75,-55 -132,-131 -132,-176 0,-30 31,-45 91,-45 22,0 52,-8 66,-17 23,-15 52,-18 198,-18 194,0 232,6 269,40 35,33 34,68 -9,190 -19,55 -35,118 -35,140 0,35 26,103 50,128 4,4 156,-6 339,-22 183,-17 339,-31 347,-31 12,0 14,-28 12,-187 l -3,-188 -51,-11 c -28,-6 -57,-15 -63,-19 -16,-9 -91,-105 -91,-115 0,-5 24,-11 53,-15 42,-5 85,2 217,34 170,41 528,119 777,168 79,15 143,31 143,34 0,3 -18,27 -41,53 -35,40 -46,46 -80,46 h -39 v 768 767 l 24,-50 c 29,-61 65,-102 109,-120 53,-22 328,-40 382,-25 116,33 220,192 265,405 20,98 20,97 40,92 44,-11 90,54 90,127 0,36 -5,48 -26,65 -15,12 -33,21 -40,21 -10,0 -14,15 -14,53 0,145 -70,344 -151,432 -72,79 -101,88 -276,93 -150,4 -154,4 -208,-22 -31,-16 -70,-45 -89,-69 -51,-63 -102,-178 -128,-288 -13,-55 -28,-99 -34,-99 -6,0 -19,20 -28,45 -20,52 -57,85 -95,85 -15,0 -36,7 -47,15 -10,8 -33,15 -50,15 -17,0 -45,5 -63,11 -22,8 -40,8 -61,1 -29,-11 -30,-10 -59,51 -42,87 -94,150 -171,206 -49,36 -76,65 -99,106 -50,88 -112,148 -201,194 -96,50 -124,83 -212,239 -80,142 -171,268 -244,336 l -52,49 35,34 c 33,31 35,36 30,78 -16,115 -99,182 -176,142 z m 127,-77 c 27,-55 28,-90 1,-124 -16,-21 -29,-26 -64,-26 -48,0 -61,10 -46,37 5,10 12,31 16,46 4,21 17,33 48,47 l 42,19 -39,16 c -37,16 -40,16 -65,-3 -24,-18 -26,-25 -26,-97 0,-84 3,-88 60,-100 39,-8 165,-137 226,-230 25,-38 79,-126 119,-195 40,-69 99,-158 131,-198 32,-40 62,-84 65,-98 10,-39 27,-29 20,12 -4,19 -10,42 -13,51 -5,13 -3,14 18,3 55,-29 112,-86 161,-161 35,-54 64,-87 92,-103 60,-35 139,-123 175,-194 17,-34 31,-68 31,-76 0,-14 -58,-53 -64,-44 -2,2 -18,26 -36,53 -19,28 -60,82 -91,121 -114,140 -180,179 -289,172 -102,-8 -113,-23 -17,-23 103,0 143,-20 234,-113 72,-73 163,-196 163,-220 0,-8 -13,3 -28,24 -104,142 -257,207 -428,183 -63,-9 -136,-38 -149,-59 -3,-5 10,-1 29,11 79,47 246,43 354,-8 32,-15 81,-52 116,-87 58,-59 106,-129 95,-141 -3,-2 -154,2 -335,10 -181,7 -417,17 -524,20 -107,3 -211,8 -230,12 -32,5 -29,7 51,29 107,28 258,86 242,91 -7,3 9,22 36,43 87,69 190,237 206,335 5,38 4,36 -19,-18 -60,-140 -202,-300 -323,-365 -62,-33 -128,-46 -283,-57 l -85,-6 81,34 c 174,71 278,152 394,305 49,65 120,196 120,222 0,6 -14,-14 -30,-46 -37,-69 -87,-139 -130,-179 l -32,-30 14,30 c 51,102 100,312 100,431 1,66 -4,91 -25,137 -29,63 -45,79 -20,20 33,-80 26,-284 -15,-393 -8,-21 -10,-17 -16,34 -4,32 -16,81 -25,109 -17,50 -79,178 -81,166 0,-3 14,-45 31,-95 24,-70 31,-106 31,-171 1,-73 -3,-90 -31,-148 -59,-120 -179,-212 -324,-249 -73,-19 -197,-31 -231,-22 l -26,6 36,32 c 19,17 50,62 69,99 18,37 45,84 59,105 14,21 26,45 26,52 0,7 5,22 11,33 10,20 10,20 42,0 32,-19 61,-26 105,-23 36,3 25,22 -12,22 -55,0 -92,38 -98,100 -3,31 -14,63 -27,81 -26,35 -22,45 33,69 71,31 137,110 136,162 -1,7 -7,-1 -14,-17 -29,-67 -112,-114 -201,-115 -35,-1 -37,-2 -20,-12 11,-6 21,-12 23,-14 2,-1 -1,-12 -8,-23 -9,-18 -7,-25 16,-44 19,-16 27,-35 31,-69 l 5,-47 -33,-3 c -21,-2 -33,-8 -32,-15 2,-7 -25,-42 -60,-77 -50,-51 -74,-67 -117,-80 -91,-27 -135,-21 -347,51 -150,50 -234,51 -327,3 -65,-33 -66,-33 -87,-14 -30,27 -66,102 -74,154 -8,59 20,240 45,290 28,54 99,70 100,23 1,-10 7,-29 16,-43 11,-19 14,-20 10,-5 -3,11 -8,31 -11,45 l -6,25 148,22 148,22 -108,-3 -108,-3 26,27 c 43,45 115,77 210,95 90,16 168,47 215,85 33,26 8,18 -78,-27 -68,-35 -115,-44 -106,-19 7,18 -26,77 -38,70 -5,-3 -6,-10 -3,-15 4,-5 -1,-9 -9,-9 -22,0 -20,32 4,63 25,32 71,48 135,46 56,-2 134,23 239,78 53,28 84,36 135,39 47,3 60,2 45,-5 -20,-9 -42,-31 -31,-31 3,0 21,7 40,15 50,21 106,19 172,-6 52,-19 55,-22 41,-38 -14,-16 -15,-22 -1,-57 14,-37 15,-38 9,-6 -8,44 17,72 63,72 33,0 33,0 33,49 0,117 114,145 168,41 z m -857,-30 c 19,-6 46,-22 60,-36 24,-25 24,-26 4,-40 -18,-13 -21,-13 -30,2 -20,35 -47,55 -68,52 -23,-3 -25,-15 -13,-58 7,-24 7,-24 -9,-5 -23,29 -29,63 -15,80 15,18 23,18 71,5 z m 361,-932 c -10,-24 -37,-59 -59,-79 -92,-83 -203,-90 -358,-25 -211,89 -300,104 -385,65 -25,-12 -56,-25 -70,-30 -23,-8 -23,-7 5,16 88,73 186,72 405,-4 177,-62 252,-68 338,-25 49,24 132,104 132,127 0,6 3,8 6,4 3,-3 -3,-25 -14,-49 z M 646,3447 c 55,-28 114,-87 139,-139 15,-32 15,-33 -2,-8 -73,102 -155,152 -251,153 -111,1 -204,-68 -269,-199 -34,-70 -38,-85 -41,-176 -3,-55 1,-127 8,-161 16,-84 69,-193 127,-258 l 47,-54 -53,50 c -56,54 -103,137 -126,225 -18,69 -19,239 -1,305 32,122 112,225 209,271 65,31 140,28 213,-9 z m -360,-10 c -51,-32 -94,-78 -89,-97 5,-19 6,-19 25,3 14,16 13,13 -4,-15 -12,-20 -27,-34 -32,-31 -5,4 -7,-1 -3,-10 3,-10 3,-17 -2,-17 -4,0 -8,-6 -9,-12 -1,-21 -41,-134 -43,-123 -1,6 -1,14 0,18 1,4 -11,0 -25,-10 l -27,-17 7,39 c 10,54 56,152 92,194 32,38 101,91 118,90 6,0 2,-6 -8,-12 z m 17,-49 C 219,3300 180,3188 170,3000 l -7,-135 -1,115 c -3,190 33,302 125,401 25,27 48,49 51,49 4,0 -12,-19 -35,-42 z m -13,29 c 0,-2 -10,-12 -22,-23 l -23,-19 19,23 c 18,21 26,27 26,19 z m 4530,-62 c 48,-33 119,-137 149,-218 24,-66 51,-212 50,-266 -1,-33 -2,-34 -9,-11 -4,14 -8,42 -9,63 -2,61 -39,195 -76,272 -56,117 -147,185 -219,164 -42,-12 -119,-91 -149,-153 -31,-61 -73,-244 -87,-376 -17,-167 13,-350 75,-455 71,-122 203,-141 279,-42 35,46 73,131 96,218 17,63 20,67 14,25 -9,-75 -48,-180 -86,-233 -90,-125 -195,-126 -298,-2 -55,66 -72,113 -96,254 -23,136 -6,379 36,524 5,19 7,38 3,44 -3,6 -1,7 5,3 17,-10 15,3 -3,21 -14,13 -13,17 10,35 14,10 46,47 71,80 26,33 61,66 78,74 47,21 118,12 166,-21 z m -325,-37 c -94,-107 -175,-323 -190,-508 -13,-162 34,-377 111,-508 l 34,-57 -31,35 c -124,142 -171,466 -104,720 18,68 11,79 -9,14 -8,-27 -15,-44 -15,-38 -1,17 -69,12 -69,-6 0,-8 -5,-28 -10,-45 l -10,-30 -1,35 c -2,102 75,309 144,385 34,37 40,31 7,-7 -15,-18 -9,-23 51,-42 11,-4 15,-11 11,-18 -4,-7 -4,-10 0,-6 4,3 7,9 7,12 -2,7 108,116 116,116 2,0 -16,-24 -42,-52 z m -3874,6 c 40,-20 34,-25 -16,-12 -94,25 -190,-28 -245,-136 -33,-65 -35,-74 -35,-170 0,-90 3,-108 28,-161 33,-70 67,-109 119,-136 41,-21 111,-25 155,-8 27,10 27,9 11,-7 -11,-12 -38,-19 -77,-22 -52,-4 -67,-1 -106,22 -111,66 -176,242 -145,398 20,103 69,184 135,224 48,28 130,32 176,8 z m 1237,-3 c 43,-11 102,-23 132,-27 l 55,-7 -40,-13 c -55,-17 -178,-17 -220,0 -29,12 -55,41 -55,60 0,11 53,6 128,-13 z m 2872,-101 c 0,-5 -10,-10 -22,-10 -12,0 -42,-12 -67,-26 -42,-24 -44,-24 -25,-5 11,12 38,29 60,36 48,17 54,18 54,5 z m -2875,-27 c 33,-9 62,-18 64,-20 2,-1 -17,-35 -43,-74 l -48,-72 -66,7 c -37,3 -100,6 -140,6 -71,0 -72,0 -61,21 35,67 180,168 219,153 8,-3 42,-13 75,-21 z m -1095,-7 c 0,-2 -9,-6 -20,-9 -11,-3 -20,-1 -20,4 0,5 9,9 20,9 11,0 20,-2 20,-4 z m 100,-20 c 9,-12 3,-19 -39,-40 -53,-27 -71,-50 -71,-89 0,-28 24,-53 63,-62 15,-4 30,-11 33,-16 6,-11 -36,-21 -72,-17 -55,6 -102,115 -73,167 32,57 129,92 159,57 z m -160,-13 c 0,-5 -7,-17 -15,-27 -19,-25 -19,-87 0,-133 20,-46 20,-46 -15,-28 -56,29 -69,123 -24,169 25,25 54,35 54,19 z m 1271,-19 c 15,-13 16,-21 8,-36 -6,-11 -9,-31 -6,-44 4,-23 2,-24 -50,-24 -60,0 -60,-1 -5,83 28,42 29,43 53,21 z m -1385,-9 c 18,-13 18,-14 -13,-21 -56,-11 -90,-92 -59,-139 9,-14 23,-25 31,-25 20,0 19,-16 -2,-24 -45,-18 -102,78 -89,149 12,62 85,95 132,60 z m 369,-5 c 15,-16 16,-25 7,-45 -10,-22 -15,-24 -62,-18 -46,5 -52,4 -57,-16 -6,-25 -48,-29 -57,-5 -10,25 12,52 62,79 58,30 83,31 107,5 z M 77,3098 c -3,-8 -6,-5 -6,6 -1,11 2,17 5,13 3,-3 4,-12 1,-19 z m 1989,-66 c -46,-4 -71,15 -62,46 6,19 9,19 54,-11 l 47,-32 z m 1789,52 c 14,-6 13,-10 -8,-33 -33,-34 -47,-89 -47,-183 0,-76 -1,-78 -25,-78 -19,0 -26,7 -34,38 -15,53 -13,147 3,187 8,19 30,44 48,55 37,22 39,23 63,14 z m 908,-18 c 18,-7 41,-23 52,-36 l 20,-22 -40,21 c -52,27 -84,27 -128,-3 -19,-13 -38,-22 -40,-19 -3,2 -19,-24 -36,-59 -57,-116 -51,-272 15,-403 18,-38 32,-70 29,-73 -2,-2 -18,18 -35,44 -112,177 -83,476 52,543 50,25 67,26 111,7 z m -799,-5 c 3,-4 -3,-16 -13,-25 -25,-23 -45,-104 -45,-188 0,-62 -2,-67 -23,-71 -39,-7 -57,40 -50,133 5,80 24,132 54,149 22,13 70,14 77,2 z M 598,3038 c -5,-34 -38,-37 -38,-4 0,20 5,26 21,26 15,0 20,-5 17,-22 z m 1759,16 c -3,-3 -12,-4 -19,-1 -8,3 -5,6 6,6 11,1 17,-2 13,-5 z M 117,2948 c -2,-18 -4,-4 -4,32 0,36 2,50 4,33 2,-18 2,-48 0,-65 z m 3944,80 c 22,-19 47,-54 31,-44 -8,5 -15,-2 -22,-18 -11,-29 -23,-36 -13,-8 4,10 2,14 -3,9 -5,-5 -10,-18 -11,-30 -2,-12 -6,-41 -9,-65 -4,-28 -2,-48 7,-58 11,-14 10,-18 -6,-30 -28,-21 -62,-17 -79,8 -18,25 -21,110 -6,173 14,63 72,95 111,63 z m -2081,-24 c 1004,-36 1642,-63 1647,-68 2,-2 0,-11 -3,-21 -6,-15 -16,-17 -83,-11 -42,3 -211,13 -376,21 -165,9 -356,20 -425,25 -204,17 -1289,50 -1617,50 -210,0 -243,3 -243,22 0,12 520,4 1100,-18 z m 1735,9 c -4,-10 -9,-33 -12,-50 -4,-24 -11,-33 -24,-33 -26,0 -25,40 2,74 23,30 45,35 34,9 z M 975,2951 c 3,-5 1,-12 -5,-16 -5,-3 -10,1 -10,9 0,18 6,21 15,7 z m 326,0 86,-6 -48,-43 -47,-42 -46,24 c -26,14 -72,27 -104,31 -129,13 -142,16 -142,31 0,11 20,14 108,13 59,-1 146,-4 193,-8 z m -370,-22 c 18,-35 2,-84 -41,-123 -22,-19 -52,-38 -67,-42 -47,-10 -49,-12 -13,-13 27,-1 32,-4 20,-12 -12,-8 -9,-9 10,-4 30,8 63,44 93,104 20,40 22,42 28,20 7,-24 7,-24 8,-1 1,27 5,27 39,3 32,-22 72,-43 72,-38 0,2 -20,18 -45,36 -64,46 -59,55 24,47 94,-8 163,-33 211,-74 79,-67 103,-152 76,-272 -9,-40 -15,-74 -13,-77 3,-2 15,17 27,42 31,65 25,176 -13,254 l -27,54 25,32 c 13,18 41,43 61,56 35,21 45,22 208,20 94,-1 173,-4 175,-7 2,-2 -1,-10 -8,-18 -11,-13 -68,-118 -128,-233 -18,-35 -39,-58 -65,-73 -21,-12 -38,-28 -38,-36 0,-8 -4,-14 -10,-14 -5,0 -10,-7 -10,-15 0,-9 -7,-18 -16,-22 -8,-3 -13,-12 -10,-19 3,-8 2,-13 -2,-12 -4,0 -25,-7 -47,-17 -43,-19 -158,-32 -198,-21 -14,3 -49,26 -78,50 -30,25 -55,43 -57,41 -2,-2 4,-17 12,-34 31,-58 21,-63 -66,-27 -75,31 -149,88 -200,154 -32,41 -56,60 -104,82 -111,50 -179,131 -166,198 4,21 9,23 35,18 16,-3 40,-6 53,-6 30,0 31,-16 2,-41 l -23,-19 41,6 c 41,6 42,6 36,-22 l -5,-29 24,28 c 25,29 125,95 146,96 7,1 17,-8 24,-20 z m 1622,14 c -7,-2 -21,-2 -30,0 -10,3 -4,5 12,5 17,0 24,-2 18,-5 z m -498,-18 c 253,-14 720,-47 850,-61 77,-8 273,-19 435,-24 l 294,-9 34,-34 c 26,-26 35,-45 41,-88 4,-30 13,-64 19,-76 19,-35 14,-37 -20,-7 -47,39 -89,54 -154,54 -77,0 -127,-17 -172,-57 -34,-31 -34,-33 -6,-14 18,12 59,28 93,36 74,20 151,9 218,-31 37,-21 42,-28 32,-40 -20,-24 -60,-41 -112,-48 -147,-19 -267,-131 -267,-249 0,-30 4,-46 10,-42 6,3 10,20 10,37 0,82 80,173 183,207 69,24 94,26 99,10 2,-6 25,5 52,26 26,20 50,34 52,32 3,-2 -27,-39 -66,-82 -119,-131 -114,-152 6,-30 60,60 112,109 116,108 3,-1 12,4 18,12 10,12 8,19 -13,35 -37,29 -67,82 -67,119 0,29 3,31 35,31 35,0 85,-18 85,-30 0,-4 -7,-13 -15,-20 -24,-20 -17,-33 7,-16 29,20 100,20 138,1 33,-17 34,-17 21,18 -8,22 -5,29 29,55 l 38,31 6,-31 c 3,-17 6,-49 6,-71 0,-32 3,-38 12,-29 7,7 12,37 12,67 0,46 3,55 18,55 16,0 18,-10 18,-88 0,-78 -3,-92 -25,-123 -14,-19 -33,-40 -42,-46 -28,-21 -107,-15 -168,11 -75,34 -70,22 8,-14 36,-18 79,-30 101,-30 h 40 l -31,-32 c -17,-18 -48,-67 -68,-108 -20,-41 -49,-90 -62,-109 -37,-48 -126,-102 -250,-151 -59,-24 -117,-49 -128,-56 -16,-10 -30,-11 -58,-3 -75,21 -116,79 -117,169 l -1,35 -12,-29 -13,-29 -36,44 c -96,117 -128,269 -86,407 5,18 8,35 5,38 -2,2 -12,-22 -22,-53 l -18,-58 -14,30 c -8,19 -11,51 -8,85 4,52 4,53 -8,23 -6,-17 -15,-35 -19,-38 -11,-11 -21,62 -16,116 7,66 -7,43 -22,-36 -11,-59 -8,-92 15,-147 4,-11 3,-18 -4,-18 -15,0 -47,54 -73,123 -11,31 -23,56 -25,54 -2,-2 4,-37 12,-78 19,-89 16,-102 -32,-158 -54,-64 -119,-91 -217,-91 -70,0 -98,7 -241,55 -103,35 -180,55 -208,55 -57,0 -77,24 -77,90 0,73 27,138 79,188 l 46,45 -42,-21 c -44,-23 -68,-51 -100,-117 -16,-33 -18,-52 -12,-110 3,-38 6,-71 5,-72 -1,-1 -19,2 -41,7 -61,14 -203,12 -265,-5 -30,-8 -68,-15 -85,-14 -28,0 -28,1 -7,9 26,11 30,51 7,70 -12,10 -15,10 -15,-4 0,-9 -8,-16 -18,-16 -10,0 -23,-5 -29,-11 -19,-19 -36,45 -31,118 4,75 33,148 88,222 l 32,43 51,-6 c 29,-3 102,-8 162,-11 z m 2105,-35 c 0,-27 -3,-30 -34,-30 -43,0 -66,9 -66,24 0,22 24,36 62,36 36,0 38,-2 38,-30 z m -1052,13 c -10,-2 -26,-2 -35,0 -10,3 -2,5 17,5 19,0 27,-2 18,-5 z m 165,-10 c -13,-2 -33,-2 -45,0 -13,2 -3,4 22,4 25,0 35,-2 23,-4 z m 427,-18 c 0,-29 -34,-36 -44,-9 -10,27 -7,34 19,34 20,0 25,-5 25,-25 z m 1065,11 c 46,-20 45,-38 -1,-34 -46,4 -74,-29 -81,-95 -10,-85 29,-144 82,-123 8,3 15,0 15,-7 0,-21 -22,-37 -51,-37 -96,0 -120,246 -30,295 32,18 26,18 66,1 z m -1242,-3 c 53,-3 97,-9 97,-14 0,-8 -99,-3 -225,11 -65,7 -66,8 -20,9 28,0 94,-2 148,-6 z m 674,-60 c -2,-16 -4,-5 -4,22 0,28 2,40 4,28 2,-13 2,-35 0,-50 z m -4020,15 c -3,-8 -6,-5 -6,6 -1,11 2,17 5,13 3,-3 4,-12 1,-19 z m 3971,-45 c 2,-8 -6,-13 -22,-13 -17,0 -26,5 -26,16 0,19 41,16 48,-3 z m 774,1 75,-7 -9,-36 -9,-37 -122,4 c -67,2 -126,8 -131,12 -4,4 -5,22 -1,39 6,30 8,31 64,31 32,0 92,-3 133,-6 z m 130,-16 c -7,-7 -12,-17 -12,-22 0,-6 7,0 16,12 8,12 20,20 25,17 14,-9 11,-69 -6,-91 -13,-16 -16,-17 -25,-4 -5,8 -10,11 -10,5 -1,-23 -20,22 -20,47 0,26 27,64 38,53 3,-3 0,-11 -6,-17 z m -104,-94 c 28,-4 52,-10 52,-13 0,-8 -153,-1 -205,9 -36,7 -33,8 30,9 39,0 94,-2 123,-5 z m -108,-204 c -22,-44 -64,-70 -107,-69 -25,0 -23,2 15,16 25,9 55,30 75,54 17,21 33,39 35,39 1,0 -7,-18 -18,-40 z m -2652,-4 c 18,-9 30,-22 26,-27 -3,-6 9,-3 27,6 50,26 136,16 245,-30 155,-64 202,-77 294,-78 92,-1 149,17 212,67 l 31,24 25,-36 24,-36 -24,-18 c -12,-11 -52,-34 -88,-51 -59,-28 -74,-31 -155,-31 -64,1 -108,7 -150,22 -33,11 -118,41 -190,66 -71,25 -140,46 -152,46 -30,0 315,-176 403,-206 124,-41 277,-41 377,1 13,5 17,2 17,-14 0,-16 -11,-27 -41,-40 l -41,-19 36,-12 c 64,-21 106,-66 136,-145 9,-24 5,-23 -53,18 -225,160 -436,178 -602,51 -38,-29 -141,-154 -137,-167 4,-12 -62,-48 -80,-43 -10,2 -18,0 -18,-5 0,-5 -36,-9 -81,-9 -141,0 -295,67 -404,175 -76,77 -100,131 -100,230 0,156 58,235 200,271 70,18 221,13 263,-10 z m 1957,-12 c -23,-17 -32,-10 -15,11 7,8 17,12 23,8 6,-4 3,-11 -8,-19 z m -99,-81 c -2,-16 -8,-55 -11,-88 -22,-213 -117,-422 -222,-486 -35,-22 -36,-22 -155,-5 -144,20 -178,33 -207,79 -12,19 -32,42 -46,51 -25,17 -90,104 -82,112 2,3 12,-6 20,-20 9,-14 38,-47 64,-74 27,-27 58,-61 70,-75 13,-13 42,-29 65,-35 75,-19 215,-35 242,-28 49,12 146,163 192,300 26,75 44,192 23,146 -6,-14 -27,-57 -45,-97 -57,-119 -161,-194 -268,-192 h -41 l 61,23 c 84,31 145,68 183,111 47,54 68,100 136,293 9,24 27,12 21,-15 z m 143,-830 c 1,-509 -2,-773 -9,-773 -7,0 -10,278 -9,818 1,449 5,797 10,772 4,-25 8,-393 8,-817 z m -2552,687 c 29,-11 30,-14 41,-104 15,-120 53,-251 101,-348 l 38,-78 h -34 c -29,0 -47,12 -118,80 -88,84 -121,106 -63,42 46,-51 101,-132 94,-139 -11,-12 -133,20 -185,48 -30,16 -57,26 -60,23 -3,-3 22,-32 57,-63 70,-64 76,-86 42,-157 -19,-38 -131,-139 -130,-117 1,4 9,33 20,63 40,113 17,234 -59,308 -52,51 -65,48 -22,-5 63,-79 77,-189 41,-321 -11,-39 -20,-79 -20,-89 0,-22 29,-53 50,-53 11,0 20,-10 23,-27 7,-38 -9,-66 -34,-58 -14,5 -19,2 -19,-12 0,-29 -37,-81 -72,-103 -38,-23 -98,-27 -98,-7 0,8 -14,33 -31,57 l -31,42 23,24 c 27,29 12,32 -24,4 -30,-24 -60,-26 -77,-5 -7,8 -19,15 -26,15 -12,0 -12,4 1,23 18,28 55,47 93,48 26,0 26,1 5,9 -26,11 -74,-3 -116,-32 -16,-12 -35,-17 -45,-13 -15,6 -15,8 5,25 29,23 17,34 -16,15 -21,-13 -19,-10 6,12 17,16 57,37 88,48 l 56,19 67,-34 c 90,-46 90,-46 67,-20 -11,13 -45,35 -77,50 -41,19 -54,30 -48,40 7,11 16,10 52,-3 66,-26 70,-19 7,13 -56,29 -56,29 -62,82 -4,29 -9,62 -12,74 -6,18 -2,21 25,21 19,0 39,8 53,22 l 22,23 -22,-11 c -46,-23 -81,-14 -113,31 -36,49 -37,58 -9,58 12,0 36,15 55,34 29,29 34,41 33,78 -1,39 -2,40 -8,13 -16,-66 -57,-104 -96,-89 -95,37 44,252 240,372 118,72 242,100 322,72 z m 1300,-190 c 35,-17 76,-47 93,-68 71,-86 95,-239 52,-334 -11,-27 -23,-48 -27,-48 -3,0 -2,18 1,40 4,22 1,68 -7,103 l -13,62 -8,-35 c -16,-65 -18,-67 -35,-32 -24,50 -94,117 -154,149 -48,25 -64,28 -149,28 -86,0 -101,-3 -162,-32 -38,-18 -68,-30 -68,-27 0,12 42,84 65,112 14,16 47,44 73,61 106,68 228,75 339,21 z M 4027,754 c -3,-4 -362,-73 -419,-81 l -38,-6 v 157 157 l 125,-7 125,-7 15,36 c 20,47 19,111 -1,131 -11,11 -36,16 -82,17 -107,1 -168,12 -163,29 10,40 3,128 -13,159 l -18,33 35,37 c 46,48 59,76 56,119 -2,26 6,55 27,97 17,33 37,77 43,98 11,32 16,37 44,37 68,0 158,84 218,204 21,43 40,86 41,95 2,9 4,-281 5,-643 2,-363 2,-661 0,-662 z M 1951,1827 c 104,-57 211,-89 304,-90 44,-1 93,2 108,6 25,7 27,6 19,-10 -5,-10 -15,-42 -22,-72 l -13,-54 -61,6 c -189,18 -408,146 -493,288 -54,91 -49,97 23,28 39,-36 100,-82 135,-102 z m 839,43 c 63,-17 129,-66 150,-113 11,-23 20,-54 20,-69 0,-35 -39,-143 -72,-199 -31,-52 -103,-133 -92,-104 12,34 17,185 7,185 -6,0 -13,-20 -15,-44 -12,-105 -161,-331 -280,-426 l -57,-45 34,-3 c 18,-2 49,4 69,12 35,14 36,14 26,-4 -14,-26 -13,-30 11,-30 17,0 20,-5 15,-28 -3,-15 -8,-48 -12,-74 -3,-27 -9,-48 -13,-48 -4,0 -18,12 -32,26 -35,38 -72,54 -122,54 -41,0 -44,2 -40,24 5,22 9,24 45,20 22,-2 56,-13 76,-24 19,-12 37,-19 39,-16 7,6 -58,46 -74,46 -40,0 -62,25 -88,97 -23,62 -27,85 -22,140 6,75 19,97 42,67 19,-25 19,-16 0,122 -24,170 -1,285 75,363 81,83 177,105 310,71 z m 687,-54 c 37,-14 94,-30 125,-36 l 58,-11 -46,-92 c -26,-51 -53,-96 -60,-100 -8,-5 -12,-12 -10,-16 9,-14 -68,-79 -119,-102 -53,-24 -160,-32 -173,-14 -4,6 -19,16 -35,23 -15,6 -34,27 -43,45 -15,31 -15,39 4,105 18,69 17,78 -11,73 -5,-1 6,19 24,43 29,42 83,86 119,99 35,13 103,5 167,-17 z m -1566,-93 c 35,-37 23,-37 -18,0 -20,18 -30,37 -20,37 2,0 19,-16 38,-37 z m 1772,1 c -8,-21 -31,-25 -26,-5 2,10 10,18 18,18 7,0 11,-6 8,-13 z m -58,-114 c -8,-16 -15,-50 -15,-76 0,-100 -102,-186 -218,-183 l -47,1 43,9 c 101,20 182,89 197,169 8,46 36,110 47,110 5,0 2,-13 -7,-30 z m -1744,-6 c 59,-3 113,-10 120,-15 10,-6 5,-9 -16,-9 -54,0 -359,30 -364,36 -3,4 30,4 74,0 44,-3 128,-9 186,-12 z m 1241,-81 c 3,-35 2,-61 0,-59 -10,11 -20,83 -15,110 8,38 10,29 15,-51 z M 1747,1078 c -1,-79 -3,-15 -3,142 0,157 2,221 3,143 2,-79 2,-207 0,-285 z M 1597,924 c -2,-2 -86,-13 -188,-24 -101,-11 -196,-22 -211,-25 l -28,-4 v 82 83 l 53,17 c 28,10 67,22 86,27 50,13 83,41 106,88 11,23 28,45 38,48 39,12 56,68 44,147 -1,11 17,32 48,56 l 50,38 3,-265 c 1,-146 1,-266 -1,-268 z m 1552,444 c 17,-45 40,-78 77,-114 28,-28 57,-61 64,-73 12,-23 12,-23 -47,-17 -32,3 -128,10 -213,16 -193,13 -240,19 -240,31 0,5 44,56 98,114 l 97,105 h 70 70 z m 414,-734 c 51,16 597,117 652,121 48,4 54,3 30,-5 -45,-14 -827,-162 -832,-157 -2,3 22,11 54,19 l 58,14 5,369 5,370 3,-369 2,-368 z M 995,1270 c 7,-11 -12,-50 -24,-50 -13,0 -21,27 -15,45 7,17 30,20 39,5 z m 68,-37 c 13,-15 13,-21 3,-35 -16,-22 -39,-23 -56,-3 -10,13 -10,19 5,35 22,24 28,25 48,3 z m 101,-49 c 28,-27 19,-37 -29,-31 -54,6 -62,11 -45,32 16,20 54,19 74,-1 z m 1639,-11 c -7,-2 -19,-2 -25,0 -7,3 -2,5 12,5 14,0 19,-2 13,-5 z m 288,-19 c 118,-8 219,-20 224,-25 7,-7 -6,-8 -40,-5 -27,3 -135,13 -240,22 -104,8 -194,17 -200,19 -21,7 48,5 256,-11 z m 602,-24 c 54,0 67,-3 67,-15 0,-14 -12,-15 -77,-10 -92,8 -103,11 -103,26 0,7 9,9 23,5 12,-3 52,-6 90,-6 z M 1070,944 c 0,-49 -4,-84 -10,-84 -6,0 -10,37 -10,91 0,57 4,88 10,84 6,-3 10,-44 10,-91 z m 1426,-10 c 68,-32 137,-141 150,-235 9,-65 -13,-87 -101,-104 -39,-7 -73,-11 -77,-8 -14,8 -9,90 6,102 16,14 49,4 39,-13 -3,-6 -3,-8 2,-4 4,4 20,-2 36,-12 15,-11 30,-16 33,-11 8,12 -51,61 -74,61 -10,0 -20,6 -23,13 -10,31 -60,-41 -72,-106 l -7,-37 h -67 c -38,0 -75,5 -84,13 -16,11 -16,16 9,65 14,28 44,68 67,87 22,19 37,35 33,35 -36,0 -140,-99 -152,-144 -4,-17 -13,-26 -25,-26 -15,0 -19,7 -19,34 0,21 -6,36 -15,40 -8,3 -14,2 -13,-2 5,-23 -16,-62 -33,-62 -10,0 -19,5 -19,11 0,14 20,50 36,67 8,7 17,19 21,25 15,24 182,148 211,156 27,8 96,1 137,-13 20,-7 20,-7 1,8 -24,19 -75,30 -121,24 -42,-5 -44,3 -9,31 32,25 83,27 130,5 z"
       id="path1"
       style="fill:#000000" />
    <path
       d="m 2252,4391 c -45,-10 -86,-22 -90,-26 -9,-9 115,4 146,16 48,18 121,13 155,-11 l 32,-23 -27,28 c -34,36 -99,41 -216,16 z"
       id="path2"
       style="fill:#000000" />
    <path
       d="m 2206,4328 c -51,-33 -86,-80 -86,-113 l 1,-20 11,20 c 17,32 80,95 110,111 15,8 52,14 84,14 50,0 59,-3 89,-33 18,-18 39,-53 46,-78 10,-35 14,-39 17,-21 6,36 -16,78 -59,117 -36,32 -44,35 -102,35 -55,0 -70,-4 -111,-32 z"
       id="path3"
       style="fill:#000000" />
    <path
       d="m 2038,4333 c 12,-2 30,-2 40,0 9,3 -1,5 -23,4 -22,0 -30,-2 -17,-4 z"
       id="path4"
       style="fill:#000000" />
    <path
       d="m 2570,4301 c 0,-22 30,-70 49,-81 11,-5 31,-10 45,-10 30,0 35,-24 9,-39 -10,-6 -13,-11 -8,-11 6,0 21,7 33,16 17,12 22,25 22,61 0,38 -2,44 -14,34 -8,-7 -25,-9 -40,-5 -22,5 -25,3 -20,-11 12,-31 -28,-13 -53,24 -13,19 -23,29 -23,22 z"
       id="path5"
       style="fill:#000000" />
    <path
       d="m 1992,4290 c -55,-13 -46,-18 33,-16 63,1 72,3 58,14 -19,13 -41,14 -91,2 z"
       id="path6"
       style="fill:#000000" />
    <path
       d="m 2278,4230 c -24,-15 -58,-74 -58,-101 1,-20 4,-18 22,16 11,22 26,43 32,47 21,14 66,8 85,-11 17,-17 20,-17 25,-4 6,15 -7,39 -29,55 -14,11 -57,9 -77,-2 z m 76,-16 c 9,-3 16,-11 16,-16 0,-7 -4,-7 -12,0 -7,6 -26,12 -43,15 -29,4 -29,4 -3,6 14,0 33,-2 42,-5 z"
       id="path7"
       style="fill:#000000" />
    <path
       d="m 2256,4129 c -9,-16 -14,-33 -11,-39 3,-6 -1,-7 -12,-4 -15,5 -15,4 1,-7 15,-9 21,-9 24,-1 2,7 18,12 36,12 20,0 40,8 51,20 10,11 25,20 34,20 12,0 11,3 -4,14 -11,7 -38,14 -61,14 -34,1 -43,-4 -58,-29 z"
       id="path8"
       style="fill:#000000" />
    <path
       d="m 2358,4104 c -9,-10 -34,-20 -55,-24 l -38,-8 36,-1 c 26,-1 42,6 59,24 26,28 24,35 -2,9 z"
       id="path9"
       style="fill:#000000" />
    <path
       d="m 2138,4069 -33,-30 43,27 c 23,15 42,28 42,30 0,12 -24,0 -52,-27 z"
       id="path10"
       style="fill:#000000" />
    <path
       d="m 2397,4062 c -23,-22 -39,-28 -95,-32 l -67,-6 41,-12 c 53,-15 108,1 137,40 28,37 17,44 -16,10 z"
       id="path11"
       style="fill:#000000" />
    <path
       d="m 2505,4080 c -11,-4 -35,-25 -54,-45 -19,-20 -44,-41 -55,-45 -17,-7 -18,-9 -4,-9 10,-1 40,19 68,44 61,54 101,59 175,19 35,-18 45,-21 34,-8 -33,40 -119,63 -164,44 z"
       id="path12"
       style="fill:#000000" />
    <path
       d="m 1927,4045 c -46,-32 -56,-65 -31,-114 10,-20 24,-49 30,-66 11,-27 13,-27 13,-7 1,12 -8,40 -19,62 -28,56 -25,78 17,116 44,40 41,43 -10,9 z"
       id="path13"
       style="fill:#000000" />
    <path
       d="m 2151,4024 c -37,-46 -44,-88 -27,-146 8,-29 22,-62 30,-73 12,-16 11,-4 -5,54 -20,79 -16,122 16,169 22,30 11,28 -14,-4 z"
       id="path14"
       style="fill:#000000" />
    <path
       d="m 2930,4039 c 0,-4 7,-23 15,-42 28,-68 56,-186 65,-278 l 9,-94 -4,110 c -2,86 -8,126 -28,181 -23,67 -56,137 -57,123 z"
       id="path15"
       style="fill:#000000" />
    <path
       d="m 1705,3936 c -16,-7 -41,-26 -55,-42 l -25,-29 32,29 c 21,19 46,30 76,33 39,5 49,2 71,-20 30,-30 33,-70 12,-129 -17,-47 -12,-48 14,-5 58,95 -28,208 -125,163 z"
       id="path16"
       style="fill:#000000" />
    <path
       d="m 1340,3860 c -18,-34 32,-109 65,-96 22,8 19,59 -6,90 -24,31 -44,33 -59,6 z"
       id="path17"
       style="fill:#000000" />
    <path
       d="m 1730,3861 c -46,-24 -69,-63 -51,-85 20,-24 49,-19 82,14 22,21 29,38 27,57 -4,34 -15,37 -58,14 z"
       id="path18"
       style="fill:#000000" />
    <path
       d="m 1335,3600 c 3,-5 8,-10 11,-10 2,0 4,5 4,10 0,6 -5,10 -11,10 -5,0 -7,-4 -4,-10 z"
       id="path19"
       style="fill:#000000" />
    <path
       d="m 3009,3223 c -13,-16 -12,-17 4,-4 9,7 17,15 17,17 0,8 -8,3 -21,-13 z"
       id="path20"
       style="fill:#000000" />
    <path
       d="m 2910,3165 c -36,-19 -61,-34 -57,-35 10,0 127,59 127,65 0,7 2,8 -70,-30 z"
       id="path21"
       style="fill:#000000" />
    <path
       d="m 1182,2754 c 21,-22 54,-69 74,-104 19,-36 32,-54 28,-40 -16,61 -61,127 -108,160 -29,22 -29,21 6,-16 z"
       id="path22"
       style="fill:#000000" />
    <path
       d="m 2162,2845 c 15,-16 30,-26 33,-23 4,3 -9,16 -27,28 l -33,23 z"
       id="path23"
       style="fill:#000000" />
    <path
       d="m 2253,2833 c 9,-2 25,-2 35,0 9,3 1,5 -18,5 -19,0 -27,-2 -17,-5 z"
       id="path24"
       style="fill:#000000" />
    <path
       d="m 4065,2540 c -51,-30 -48,-42 4,-16 23,12 61,47 50,45 -2,0 -26,-13 -54,-29 z"
       id="path25"
       style="fill:#000000" />
    <path
       d="m 2797,2480 c 5,-20 3,-21 -33,-14 -22,4 -42,12 -46,18 -11,16 -21,0 -14,-22 8,-25 58,-46 91,-38 28,7 35,45 11,65 -12,10 -13,8 -9,-9 z"
       id="path26"
       style="fill:#000000" />
    <path
       d="m 3580,2459 c -48,-29 -98,-78 -118,-114 -17,-32 -20,-149 -5,-208 6,-25 9,-9 13,68 7,121 29,167 108,232 57,46 58,55 2,22 z"
       id="path27"
       style="fill:#000000" />
    <path
       d="m 2508,1529 c -13,-7 -18,-23 -18,-52 0,-51 18,-80 60,-97 40,-16 103,1 125,33 19,30 31,87 17,87 -6,0 -12,-5 -14,-10 -4,-14 -75,-39 -110,-40 -46,0 -75,49 -46,78 15,15 9,15 -14,1 z"
       id="path28"
       style="fill:#000000" />
    <path
       d="m 2468,1375 c 15,-29 53,-62 82,-69 22,-6 21,-5 -5,9 -16,9 -43,31 -59,48 -15,18 -24,23 -18,12 z"
       id="path29"
       style="fill:#000000" />
    <path
       d="m 3367,1768 c -10,-11 -16,-22 -13,-25 3,-4 6,-3 6,1 0,4 15,-7 33,-23 32,-31 32,-31 39,-8 11,39 9,46 -19,60 -25,12 -30,12 -46,-5 z"
       id="path30"
       style="fill:#000000" />
    <path
       d="m 3450,1736 c 0,-2 7,-7 16,-10 8,-3 12,-2 9,4 -6,10 -25,14 -25,6 z"
       id="path31"
       style="fill:#000000" />
    <path
       d="m 2296,651 c -4,-5 3,-7 14,-4 23,6 26,13 6,13 -8,0 -17,-4 -20,-9 z"
       id="path32"
       style="fill:#000000" />
  </g>
</svg>
